:SAMPLES-PER-SECOND 30
:FRAME-RANGE 1-2009
:FULLY-SPECIFIED
:DEGREES
440
root  -29.5284 38.7629 53.8541 -179.891 4.13652 -177.925
RightUpLeg  -28.2596 6.05288 -6.14848
RightLeg  54.0645 -7.97017 -11.9941
RightFoot  -0.795646 -1.39256 14.9513
RightToes  4.71047e-010 1.2921e-014 -6.02303e-014
Spine  8.1815 -4.40567 -11.5735
Spine1  1.69658 -6.24619 3.77894
HEad  8.44835 -0.244455 6.82359
LeftShoulder1  1.91191 -2.02369 -28.5158
LeftArm  12.4869 -23.0016 -39.2528
LeftForeArm  7.38253 -4.63992 -17.4716
LeftHand  0.0885263 0.639167 -2.27472
RightShoulder  -0.0908177 -3.7044 33.4414
RightArm  61.9657 -14.2479 5.93232
RightForeArm  33.1161 8.26388 16.6216
RightHand  -0.490948 -0.142513 -10.894
LeftUpLeg  -5.29122 7.83593 -5.24285
LeftLeg  15.0656 18.598 0.780068
LeftFoot  -13.5927 0.140364 2.98675
LeftToes  2.15783e-011 -7.56106e-012 -8.20802e-012
441
root  -29.7228 38.7859 52.9079 179.68 2.27101 -177.725
RightUpLeg  -28.6365 6.96778 -4.82513
RightLeg  45.5553 -9.75056 -10.7656
RightFoot  -1.08427 -1.36754 15.0738
RightToes  4.71047e-010 1.2921e-014 -6.02303e-014
Spine  7.83223 -5.12198 -11.6074
Spine1  2.04094 -6.94313 4.38889
HEad  8.71879 -0.575173 7.30006
LeftShoulder1  1.96416 -2.2876 -27.8269
LeftArm  15.7478 -27.8006 -41.3905
LeftForeArm  6.80882 -6.523 -16.9254
LeftHand  0.0787003 0.309413 -1.85572
RightShoulder  -0.683805 -5.29519 31.4206
RightArm  67.8216 -16.3473 5.63129
RightForeArm  31.0447 9.64712 16.0926
RightHand  -0.570321 0.0770836 -12.158
LeftUpLeg  -2.41215 7.46124 -5.43697
LeftLeg  13.3368 17.0883 0.482515
LeftFoot  -14.2692 0.161316 2.95757
LeftToes  2.15783e-011 -7.56106e-012 -8.20802e-012
442
root  -29.9717 38.7846 51.9421 179.13 1.01976 -177.545
RightUpLeg  -27.6905 7.63797 -3.34817
RightLeg  34.7245 -11.5757 -8.73487
RightFoot  -0.736613 -1.39419 14.8901
RightToes  4.71047e-010 1.2921e-014 -6.02303e-014
Spine  7.39364 -5.5946 -10.9481
Spine1  2.49338 -7.25695 4.38594
HEad  9.14677 -1.00628 7.4828
LeftShoulder1  1.98622 -2.49575 -26.9949
LeftArm  18.1734 -31.6416 -43.9979
LeftForeArm  7.22955 -7.99406 -16.2995
LeftHand  0.0572794 -0.00770483 -1.24228
RightShoulder  -0.980702 -6.19202 29.9192
RightArm  72.236 -17.7323 5.30074
RightForeArm  29.3401 10.6574 15.6403
RightHand  -0.587818 0.44077 -11.7786
LeftUpLeg  0.737711 7.30271 -5.57015
LeftLeg  11.4648 15.9903 0.125004
LeftFoot  -15.0004 0.177618 2.73967
LeftToes  2.15783e-011 -7.56106e-012 -8.20802e-012
443
root  -30.2565 38.6972 50.9474 178.736 0.174942 -177.662
RightUpLeg  -26.0158 6.33289 -1.52764
RightLeg  22.7387 -12.0452 -5.68571
RightFoot  -0.334355 -1.48482 15.3026
RightToes  4.71047e-010 1.2921e-014 -6.02303e-014
Spine  6.96435 -5.82573 -10.2502
Spine1  2.67161 -7.31237 4.31999
HEad  9.65483 -1.12908 7.09257
LeftShoulder1  1.96317 -2.53597 -26.3721
LeftArm  19.4763 -34.4704 -46.9504
LeftForeArm  8.19377 -9.21168 -15.5902
LeftHand  0.0602914 -0.513472 -1.13915
RightShoulder  -1.05976 -6.50627 28.7632
RightArm  73.8153 -19.0572 4.89782
RightForeArm  27.8635 10.2752 15.8852
RightHand  -0.569649 0.706461 -10.9434
LeftUpLeg  3.3615 7.24639 -5.94104
LeftLeg  10.4528 15.2544 -0.151079
LeftFoot  -16.1433 0.204808 2.57227
LeftToes  2.15783e-011 -7.56106e-012 -8.20802e-012
444
root  -30.5465 38.5297 49.9093 178.152 -0.709 -178.022
RightUpLeg  -24.0664 0.768996 1.63009
RightLeg  12.9724 -8.74667 -2.47848
RightFoot  -0.458493 -1.47742 15.3911
RightToes  4.71047e-010 1.2921e-014 -6.02303e-014
Spine  6.91397 -5.92814 -10.0553
Spine1  2.68007 -7.4529 4.72518
HEad  10.2885 -1.39051 6.47444
LeftShoulder1  1.93326 -2.55256 -25.7667
LeftArm  20.98 -36.0023 -49.8977
LeftForeArm  8.5223 -10.7934 -14.6047
LeftHand  0.0615144 -1.08815 -1.00225
RightShoulder  -1.075 -6.60876 28.0921
RightArm  66.7516 -19.4387 4.371
RightForeArm  33.5262 11.2928 14.7158
RightHand  -0.520042 1.13759 -9.37605
LeftUpLeg  6.03432 7.44552 -6.33269
LeftLeg  10.0732 14.322 -0.575393
LeftFoot  -17.7128 0.230259 2.22612
LeftToes  2.15783e-011 -7.56106e-012 -8.20802e-012
445
root  -30.8412 38.2562 48.8089 177.578 -1.45706 -178.684
RightUpLeg  -22.4371 -2.80839 3.05969
RightLeg  6.9646 -8.76231 0.320282
RightFoot  0.82891 -1.90997 17.8364
RightToes  4.71047e-010 1.2921e-014 -6.02303e-014
Spine  6.51585 -5.93154 -10.2322
Spine1  3.11734 -7.53634 5.06111
HEad  10.6704 -1.53327 5.63159
LeftShoulder1  1.93775 -2.61148 -25.5234
LeftArm  24.5869 -36.8099 -52.2156
LeftForeArm  6.92574 -13.1518 -13.1358
LeftHand  0.0875582 -1.45068 -1.35888
RightShoulder  -0.968486 -6.30346 28.036
RightArm  62.3475 -19.3451 4.49345
RightForeArm  34.8416 13.9691 12.309
RightHand  -0.421821 1.56012 -7.20077
LeftUpLeg  8.49156 7.65815 -7.00176
LeftLeg  10.4716 13.3816 -0.80741
LeftFoot  -19.6704 0.250644 1.82032
LeftToes  2.15783e-011 -7.56106e-012 -8.20802e-012
446
root  -31.1264 37.9934 47.6738 177.056 -2.0929 -179.05
RightUpLeg  -21.0749 -1.48566 3.17314
RightLeg  4.67914 -13.1891 1.53075
RightFoot  1.28995 -1.8384 16.5838
RightToes  4.71047e-010 1.2921e-014 -6.02303e-014
Spine  6.36133 -5.82997 -10.0828
Spine1  3.31839 -7.56549 5.47303
HEad  11.308 -1.6549 4.84465
LeftShoulder1  1.95346 -2.62103 -25.7391
LeftArm  29.5256 -36.8529 -53.6808
LeftForeArm  4.40513 -15.3281 -11.6373
LeftHand  0.100533 -1.64377 -1.51875
RightShoulder  -0.84856 -5.89042 28.9529
RightArm  60.0122 -18.4195 4.84754
RightForeArm  31.209 17.6962 8.62167
RightHand  -0.378321 1.7423 -6.32329
LeftUpLeg  11.0764 8.1816 -7.04408
LeftLeg  10.6922 12.1554 -1.37443
LeftFoot  -21.4445 0.255845 1.43758
LeftToes  2.15783e-011 -7.56106e-012 -8.20802e-012
447
root  -31.4316 37.7036 46.4461 176.834 -3.25954 -179.216
RightUpLeg  -20.3106 -2.13103 4.15377
RightLeg  6.15572 -13.4391 0.919191
RightFoot  0.599272 -1.65937 15.8137
RightToes  4.71047e-010 1.2921e-014 -6.02303e-014
Spine  5.85001 -6.05304 -9.88555
Spine1  3.55965 -8.01339 6.19278
HEad  12.1229 -1.8367 3.90462
LeftShoulder1  1.96198 -2.55872 -26.2253
LeftArm  33.97 -35.4636 -54.472
LeftForeArm  1.55802 -17.2225 -10.1447
LeftHand  0.090909 -1.6061 -1.37004
RightShoulder  -0.632225 -5.19256 30.6651
RightArm  54.3599 -15.7664 5.34265
RightForeArm  29.2786 20.2351 5.79214
RightHand  -0.369312 1.68081 -6.22544
LeftUpLeg  13.3019 8.57149 -6.81839
LeftLeg  11.4091 10.3641 -1.79456
LeftFoot  -23.1596 0.266808 1.23371
LeftToes  2.15783e-011 -7.56106e-012 -8.20802e-012
448
root  -31.7371 37.6488 45.2381 176.891 -4.68678 -178.533
RightUpLeg  -20.7363 -2.67109 5.96533
RightLeg  9.57955 -10.9896 0.00178103
RightFoot  4.08722 -0.498587 3.88518
RightToes  4.71047e-010 1.2921e-014 -6.02303e-014
Spine  5.31523 -6.20674 -8.90223
Spine1  3.98055 -8.63498 7.92344
HEad  12.8626 -2.1455 2.3109
LeftShoulder1  2.00841 -2.57249 -26.9409
LeftArm  36.4085 -33.1204 -55.1121
LeftForeArm  0.491188 -17.7435 -9.74536
LeftHand  0.0625861 -1.64906 -0.888531
RightShoulder  -0.454702 -4.65477 32.4045
RightArm  45.3179 -11.5502 6.20289
RightForeArm  29.4461 21.7849 4.30261
RightHand  -0.3357 1.45249 -5.84372
LeftUpLeg  15.5604 9.14421 -5.36442
LeftLeg  11.1488 7.94198 -2.38929
LeftFoot  -23.3127 0.164233 0.231153
LeftToes  2.15783e-011 -7.56106e-012 -8.20802e-012
449
root  -32.0554 37.6389 43.9843 176.645 -5.40616 -176.998
RightUpLeg  -21.5809 -2.77183 8.21132
RightLeg  14.4526 -10.8863 -2.39637
RightFoot  5.3394 0.39166 -2.42046
RightToes  4.71047e-010 1.2921e-014 -6.02303e-014
Spine  5.42494 -5.89191 -6.66557
Spine1  3.76519 -8.66225 9.37772
HEad  13.3291 -2.63769 0.459501
LeftShoulder1  2.05458 -2.59807 -27.579
LeftArm  37.381 -30.2301 -55.7682
LeftForeArm  0.78728 -16.8707 -10.6522
LeftHand  0.0458493 -1.50167 -0.638053
RightShoulder  0.0396825 -3.37888 35.3411
RightArm  33.1103 -6.27596 5.62829
RightForeArm  30.8915 22.6744 3.69156
RightHand  -0.38313 1.59277 -6.52659
LeftUpLeg  17.305 12.4352 -2.11744
LeftLeg  12.9171 3.14688 -2.29995
LeftFoot  -22.9678 -0.0296213 -1.64495
LeftToes  2.15783e-011 -7.56106e-012 -8.20802e-012
450
root  -32.3934 37.5668 42.6969 176.239 -4.95586 -175.916
RightUpLeg  -21.7644 -1.63898 9.37394
RightLeg  19.8416 -11.1123 -4.6167
RightFoot  2.04592 0.224783 -1.7952
RightToes  4.71047e-010 1.2921e-014 -6.02303e-014
Spine  5.32391 -5.56377 -4.04659
Spine1  3.87721 -8.17324 9.46073
HEad  12.8404 -2.35818 -1.39875
LeftShoulder1  2.02984 -2.37675 -28.4464
LeftArm  36.2865 -26.5944 -55.1647
LeftForeArm  2.26539 -15.2452 -12.0981
LeftHand  0.0459845 -1.39632 -0.660274
RightShoulder  1.58181 0.073632 38.3954
RightArm  20.512 -0.261402 4.63125
RightForeArm  31.3814 22.1074 3.83852
RightHand  -0.33784 0.455673 -6.78837
LeftUpLeg  17.8813 19.3138 1.77428
LeftLeg  18.261 -3.7328 -1.67616
LeftFoot  -21.9107 -0.300185 -4.66407
LeftToes  2.15783e-011 -7.56106e-012 -8.20802e-012
451
root  -32.691 37.6568 41.5219 175.958 -5.05486 -175.286
RightUpLeg  -20.6217 -3.21688 9.84348
RightLeg  21.9995 -9.82338 -4.55167
RightFoot  -0.458402 0.188919 -2.01455
RightToes  4.71047e-010 1.2921e-014 -6.02303e-014
Spine  5.43894 -5.41996 -2.07781
Spine1  4.01813 -8.00315 9.96842
HEad  13.2585 -1.73582 -2.85779
LeftShoulder1  2.02404 -2.24116 -29.1747
LeftArm  39.4639 -22.6081 -53.9153
LeftForeArm  -1.28598 -13.7159 -13.8453
LeftHand  0.0350693 -1.02232 -0.537587
RightShoulder  3.55058 4.23016 39.8762
RightArm  6.46924 5.0954 3.68243
RightForeArm  33.422 21.187 4.06508
RightHand  -0.347032 0.150553 -7.32589
LeftUpLeg  15.7621 20.7695 3.83399
LeftLeg  26.4333 -4.65771 -2.17581
LeftFoot  -17.5068 -0.421336 -9.74913
LeftToes  2.15783e-011 -7.56106e-012 -8.20802e-012
452
root  -32.9063 37.6839 40.4974 176.491 -6.15944 -174.298
RightUpLeg  -20.3742 -6.88246 10.7442
RightLeg  23.3861 -7.51747 -3.77328
RightFoot  -2.93466 0.114643 -1.82989
RightToes  4.71047e-010 1.2921e-014 -6.02303e-014
Spine  5.00087 -5.32059 1.02833
Spine1  3.72652 -7.41285 9.75692
HEad  14.461 -2.23627 -3.98008
LeftShoulder1  2.02603 -2.14828 -29.7989
LeftArm  38.7152 -18.9046 -52.8731
LeftForeArm  -0.579495 -9.7969 -16.6563
LeftHand  0.0855659 -0.576334 -1.61549
RightShoulder  4.95187 7.36833 39.5034
RightArm  -4.77159 9.71806 2.99849
RightForeArm  33.8135 20.8687 4.039
RightHand  -0.363555 -0.0925877 -8.00135
LeftUpLeg  9.72016 20.2111 5.87949
LeftLeg  37.937 -5.00288 -3.80549
LeftFoot  -8.64467 0.392838 -14.4351
LeftToes  2.15783e-011 -7.56106e-012 -8.20802e-012
453
root  -33.0677 37.6101 39.5843 176.802 -6.44403 -172.997
RightUpLeg  -20.0356 -9.254 11.9784
RightLeg  24.7507 -5.59387 -2.94328
RightFoot  -5.2602 0.0527839 -1.66433
RightToes  4.71047e-010 1.2921e-014 -6.02303e-014
Spine  4.9936 -4.55264 5.18618
Spine1  3.45849 -5.76155 8.24705
HEad  14.8001 -3.00426 -4.40348
LeftShoulder1  2.00017 -2.09092 -29.702
LeftArm  45.0935 -15.766 -52.2599
LeftForeArm  -7.00072 -7.8648 -18.4162
LeftHand  0.126049 0.0168013 -2.74988
RightShoulder  5.59602 9.51857 37.0099
RightArm  -12.3743 13.1499 2.7243
RightForeArm  33.043 21.6102 3.67239
RightHand  -0.342118 -0.796539 -8.60744
LeftUpLeg  2.96692 20.0314 8.46238
LeftLeg  49.2751 -5.33136 -6.17995
LeftFoot  3.09122 1.9572 -15.5273
LeftToes  2.15783e-011 -7.56106e-012 -8.20802e-012
